<svg width="256" height="256" viewBox="0 0 256 256" fill="none" xmlns="http://www.w3.org/2000/svg">
<g id="urn:talqui:calendly:0" clip-path="url(#clip0_2080_3773)">
<rect id="background" width="256" height="256" fill="white"/>
<g id="Calendly_idoHNAJiuQ_0 1" clip-path="url(#clip1_2080_3773)">
<g id="Layer 2">
<g id="Logo assets">
<path id="Vector" d="M117.983 166.919C121.838 166.919 125.489 169.268 126.26 174.326H109.088C109.808 169.88 113.15 166.919 117.983 166.919ZM125.71 181.817C122.059 187.819 109.88 185.949 109.088 178.207H130.63C133.316 159.216 104.706 157.142 104.512 176.164C103.664 189.351 122.907 194.504 129.601 183.827L125.71 181.817Z" fill="#006BFF"/>
<path id="Vector_2" d="M102.401 151.641H97.929V188.932H102.401V151.641Z" fill="#006BFF"/>
<path id="Vector_3" d="M155.67 173.249V188.932H151.198V173.505C151.198 169.323 148.781 166.965 144.823 166.965C134.351 166.415 137.964 182.253 137.369 188.932H132.895V163.39H137.369V167.074C142.572 158.928 156.465 162.772 155.67 173.254" fill="#006BFF"/>
<path id="Vector_4" d="M180.335 176.161C180.45 164.174 161.979 164.124 162.083 176.161C161.981 188.198 180.452 188.147 180.335 176.161ZM184.807 151.641V188.932H180.335V184.538C173.889 194.616 156.97 188.327 157.611 176.161C156.969 163.997 173.892 157.704 180.335 167.783V151.641H184.807Z" fill="#006BFF"/>
<path id="Vector_5" d="M192.886 151.641H188.413V188.932H192.886V151.641Z" fill="#006BFF"/>
<path id="Vector_6" d="M89.9568 176.161C90.0721 164.174 71.5993 164.123 71.7053 176.161C71.6009 188.198 90.0737 188.147 89.9568 176.161ZM94.4292 163.39V188.932H89.9568V184.54C83.5108 194.608 66.5922 188.327 67.2329 176.161C66.5906 163.997 83.5123 157.704 89.9568 167.783V163.39H94.4292Z" fill="#006BFF"/>
<path id="Vector_7" d="M60.5984 184.022C51.0081 187.895 39.9852 178.832 42.0476 168.74C43.8263 157.052 59.6007 153.096 66.7404 162.544L70.6111 159.731C61.0551 146.901 39.7265 152.165 37.3211 167.941C34.2174 184.239 54.2132 196.152 67.1956 185.754L64.6203 181.703C63.4171 182.689 62.0574 183.47 60.5968 184.013" fill="#006BFF"/>
<path id="Vector_8" d="M214.474 163.39C213.721 169.501 217.748 185.887 207.542 185.54C196.993 185.762 201.066 169.778 200.32 163.39H195.799C195.955 173.096 193.057 189.868 207.548 189.606C213.711 189.606 214.672 185.734 214.672 185.635V190.85C215.651 200.689 202.19 201.68 200.769 192.967L196.725 194.371C197.303 196.829 198.702 199.019 200.693 200.586C202.685 202.153 205.151 203.004 207.692 203C215.011 203 219.006 198.217 219.006 190.85V163.39H214.474Z" fill="#006BFF"/>
<path id="Vector_9" d="M143.748 88.0662C142.36 86.6371 140.679 85.5201 138.82 84.7901C137.491 84.1618 136.041 83.8253 134.569 83.8034L130.753 83.7415C129.255 83.7173 127.767 83.9866 126.373 84.534C124.98 85.0814 123.709 85.8963 122.633 86.9319C121.556 87.9676 120.696 89.2038 120.1 90.5699C119.505 91.9361 119.186 93.4054 119.163 94.894L119.077 100.16C119.053 101.649 119.324 103.128 119.875 104.512C120.425 105.897 121.246 107.16 122.288 108.229C123.33 109.298 124.574 110.153 125.949 110.745C127.324 111.337 128.803 111.653 130.301 111.677C130.301 111.677 131.663 111.703 132.795 111.722C133.525 111.733 134.158 111.742 134.267 111.737C135.434 111.74 136.594 111.547 137.696 111.166C139.85 110.524 141.817 109.376 143.43 107.82C147.681 103.721 153.424 101.729 159.111 101.821C160.561 101.844 162.006 102.005 163.426 102.299C163.951 99.6401 163.995 96.909 163.557 94.2341C162.132 94.4803 160.687 94.5923 159.242 94.5687C153.553 94.4773 147.876 92.301 143.751 88.0631" fill="#006BFF"/>
<path id="Vector_10" d="M146.714 111.156C144.59 113.208 142.008 114.732 139.179 115.603C137.634 116.133 136.013 116.406 134.379 116.412C134.212 116.412 133.874 116.412 132.759 116.401L130.256 116.362C125.993 116.296 121.93 114.553 118.958 111.516C115.986 108.479 114.347 104.395 114.4 100.159L114.473 94.8924C114.534 90.6523 116.285 86.6093 119.343 83.6511C122.401 80.6929 126.515 79.0614 130.783 79.1148L134.599 79.1674C136.686 79.1935 138.744 79.6547 140.641 80.5212C143.067 81.4902 145.261 82.9563 147.079 84.8242C150.163 87.9748 154.615 89.818 159.295 89.8815C160.302 89.8946 161.308 89.8247 162.303 89.6724C161.916 88.6763 161.457 87.7089 160.931 86.7774L156.566 79.0327C154.603 75.541 151.749 72.6243 148.292 70.5756C144.834 68.5268 140.895 67.4183 136.87 67.3613L127.938 67.2389C123.911 67.1842 119.941 68.1834 116.426 70.1362C112.911 72.0889 109.975 74.9264 107.914 78.3635L103.341 85.989C101.28 89.4267 100.166 93.3429 100.112 97.3439C100.057 101.345 101.063 105.29 103.03 108.782L107.395 116.527C109.359 120.018 112.214 122.934 115.672 124.982C119.13 127.031 123.069 128.138 127.094 128.195L136.025 128.317C140.051 128.373 144.021 127.375 147.536 125.423C151.051 123.471 153.987 120.634 156.049 117.197L160.62 109.57C161.168 108.656 161.65 107.705 162.063 106.723C161.072 106.543 160.068 106.445 159.061 106.431C154.384 106.366 149.89 108.086 146.721 111.152" fill="#006BFF"/>
<path id="Vector_11" d="M172.642 105.867C169.957 103.813 166.821 102.421 163.491 101.802C163.214 103.34 162.777 104.845 162.188 106.294C164.814 106.716 167.303 107.745 169.455 109.298L169.437 109.356C166.951 117.234 162.039 124.138 155.394 129.095C149.543 133.439 142.591 136.081 135.315 136.723C128.04 137.366 120.728 135.984 114.197 132.733C107.666 129.482 102.175 124.49 98.3371 118.315C94.4991 112.139 92.466 105.025 92.4651 97.7672C92.4661 90.5117 94.4978 83.3994 98.3332 77.2254C102.169 71.0513 107.657 66.0587 114.184 62.8057C120.711 59.5528 128.019 58.1675 135.293 58.8049C142.567 59.4422 149.519 62.0771 155.372 66.4149C162.012 71.3621 166.925 78.2525 169.42 86.1175C169.434 86.1609 169.444 86.1981 169.454 86.2306L169.421 86.2554C167.278 87.7977 164.8 88.8189 162.188 89.2371C162.777 90.6886 163.214 92.1964 163.493 93.7368C166.653 93.1497 169.639 91.8644 172.232 89.976C174.806 88.0398 174.165 85.6095 173.89 84.7328C168.308 66.9276 151.589 54 131.83 54C107.504 54 87.7822 73.5958 87.7822 97.7672C87.7822 121.939 107.504 141.534 131.83 141.534C151.611 141.534 168.345 128.579 173.909 110.741C174.556 109.223 174.6 107.45 172.642 105.867Z" fill="#006BFF"/>
<path id="Vector_12" d="M159.294 89.8737C154.618 89.8102 150.163 87.967 147.079 84.8164C145.26 82.9515 143.065 81.488 140.639 80.5211C138.743 79.6543 136.685 79.1931 134.599 79.1674L130.782 79.1162C126.518 79.0633 122.406 80.6931 119.349 83.6483C116.293 86.6035 114.54 90.6427 114.476 94.8799L114.403 100.146C114.348 104.383 115.985 108.469 118.957 111.508C121.929 114.547 125.992 116.291 130.256 116.358L132.759 116.396C133.875 116.412 134.212 116.412 134.379 116.409C136.012 116.401 137.633 116.128 139.177 115.6C142.007 114.73 144.589 113.207 146.714 111.156C149.885 108.086 154.384 106.367 159.061 106.43C160.07 106.445 161.077 106.543 162.071 106.723C162.68 105.281 163.138 103.78 163.438 102.245C162.018 101.956 160.574 101.8 159.125 101.781C153.438 101.703 147.707 103.709 143.455 107.821C141.845 109.382 139.881 110.534 137.729 111.181C136.627 111.566 135.467 111.762 134.299 111.76C134.19 111.76 133.557 111.76 132.828 111.748L130.333 111.711C127.309 111.669 124.424 110.436 122.315 108.281C120.205 106.127 119.043 103.228 119.085 100.222L119.158 94.9481C119.2 91.9427 120.441 89.0768 122.61 86.981C124.778 84.8852 127.695 83.731 130.72 83.7724L134.538 83.8235C136.011 83.8412 137.462 84.1729 138.795 84.7963C140.656 85.5224 142.339 86.6357 143.731 88.0614C147.866 92.2854 153.552 94.4478 159.237 94.5268C160.683 94.5462 162.129 94.43 163.553 94.1798C163.295 92.6361 162.877 91.123 162.306 89.6646C161.311 89.8169 160.305 89.8868 159.298 89.8737" fill="#0AE8F0"/>
</g>
</g>
</g>
</g>
<defs>
<clipPath id="clip0_2080_3773">
<rect width="256" height="256" fill="white"/>
</clipPath>
<clipPath id="clip1_2080_3773">
<rect width="182" height="149" fill="white" transform="translate(37 54)"/>
</clipPath>
</defs>
</svg>
