<svg width="513" height="512" viewBox="0 0 513 512" fill="none" xmlns="http://www.w3.org/2000/svg">
<g clip-path="url(#clip0_1_31)">
<path d="M0.00488281 0H512.005V512H0.00488281V0Z" fill="#3B86FB"/>
<path d="M412.575 218.975H424.017C427.008 218.975 429.876 220.163 431.99 222.278C434.105 224.392 435.293 227.26 435.293 230.251V295.958C435.293 302.185 430.244 307.233 424.017 307.233H412.575V218.975Z" fill="#FFD262"/>
<path d="M87.7634 218.975H99.2052V307.233H87.7634C81.5362 307.233 76.488 302.185 76.488 295.958V230.251C76.488 227.26 77.676 224.392 79.7905 222.278C81.9051 220.163 84.773 218.975 87.7634 218.975Z" fill="#FFD262"/>
<path d="M296.385 71.3241H217.185C212.53 71.3241 208.755 75.0983 208.755 79.7541V80.4312C208.755 85.087 212.53 88.8612 217.185 88.8612H296.385C301.04 88.8612 304.815 85.087 304.815 80.4312V79.7541C304.815 75.0983 301.04 71.3241 296.385 71.3241Z" fill="#FFD262"/>
<path d="M371.166 106.388H140.574C117.704 106.388 99.1638 124.928 99.1638 147.798V378.39C99.1638 401.26 117.704 419.8 140.574 419.8H371.166C394.036 419.8 412.576 401.26 412.576 378.39V147.798C412.576 124.928 394.036 106.388 371.166 106.388Z" fill="white"/>
<path d="M309.215 313.089C308.806 342.495 284.852 366.118 255.443 366.118C226.035 366.118 202.081 342.495 201.672 313.089H309.215Z" fill="#3B86FB"/>
<path d="M222.808 222.314C222.818 229.114 220.402 235.693 215.995 240.871H172.059C163.847 231.15 162.996 217.191 169.966 206.545C176.936 195.899 190.072 191.096 202.265 194.735C214.458 198.374 222.812 209.59 222.808 222.314Z" fill="#3B86FB"/>
<path d="M346.234 222.314C346.247 229.112 343.835 235.692 339.431 240.871H295.495C287.276 231.152 286.419 217.188 293.389 206.538C300.358 195.888 313.497 191.083 325.693 194.724C337.889 198.365 346.244 209.586 346.234 222.314Z" fill="#3B86FB"/>
</g>
<defs>
<clipPath id="clip0_1_31">
<rect width="513" height="512" fill="white"/>
</clipPath>
</defs>
</svg>
