<svg width="256" height="256" viewBox="0 0 256 256" fill="none" xmlns="http://www.w3.org/2000/svg">
<g id="urn:talqui:hubspot:0" clip-path="url(#clip0_2009_3549)">
<rect id="background" width="256" height="256" fill="#FF7054"/>
<g id="hubspot-svgrepo-com 1" clip-path="url(#clip1_2009_3549)">
<path id="Vector" d="M169.607 100.534V81.3238C172.148 80.1341 174.3 78.2482 175.812 75.885C177.325 73.5218 178.136 70.7781 178.153 67.9723V67.52C178.142 63.5985 176.58 59.8406 173.807 57.0671C171.035 54.2935 167.278 52.7297 163.357 52.7173H162.904C158.983 52.728 155.225 54.29 152.451 57.0623C149.678 59.8346 148.114 63.5918 148.102 67.5133V67.9655C148.114 70.7558 148.914 73.4858 150.409 75.8418C151.904 78.1977 154.033 80.0839 156.553 81.2833L156.64 81.3238V100.575C149.295 101.697 142.38 104.748 136.6 109.417L136.681 109.357L83.8415 68.2085C84.8465 64.4392 84.5129 60.4381 82.8976 56.8873C81.2823 53.3364 78.4854 50.4558 74.9837 48.7367C71.482 47.0175 67.4924 46.5662 63.6951 47.4597C59.8979 48.3532 56.5281 50.5362 54.1605 53.6365C51.7928 56.7367 50.5738 60.5623 50.7114 64.4608C50.849 68.3594 52.3346 72.0895 54.9149 75.0151C57.4953 77.9407 61.0105 79.8808 64.8613 80.5044C68.7121 81.128 72.66 80.3965 76.0318 78.4348L75.9508 78.4753L127.899 118.915C123.306 125.801 120.867 133.898 120.892 142.175C120.892 151.24 123.761 159.644 128.635 166.516L128.547 166.387L112.738 182.196C111.473 181.787 110.153 181.571 108.823 181.555H108.81C106.096 181.555 103.443 182.359 101.186 183.867C98.9291 185.375 97.1702 187.518 96.1316 190.026C95.0929 192.533 94.8212 195.293 95.3507 197.954C95.8802 200.616 97.1871 203.062 99.1063 204.981C101.025 206.9 103.471 208.207 106.133 208.736C108.795 209.266 111.554 208.994 114.061 207.955C116.569 206.917 118.712 205.158 120.22 202.901C121.728 200.645 122.533 197.991 122.533 195.277C122.516 193.912 122.291 192.558 121.864 191.261L121.891 191.356L137.531 175.716C142.628 179.608 148.546 182.286 154.834 183.546C161.122 184.807 167.615 184.616 173.818 182.989C180.022 181.363 185.772 178.342 190.633 174.158C195.493 169.974 199.335 164.736 201.866 158.844C204.397 152.951 205.55 146.559 205.239 140.153C204.927 133.747 203.159 127.497 200.068 121.878C196.977 116.259 192.645 111.419 187.401 107.726C182.158 104.033 176.142 101.585 169.81 100.568L169.567 100.534H169.607ZM163.1 163.829C158.822 163.818 154.644 162.54 151.092 160.156C147.54 157.771 144.775 154.388 143.145 150.433C141.516 146.477 141.095 142.128 141.936 137.934C142.777 133.739 144.842 129.888 147.871 126.867C150.9 123.846 154.756 121.791 158.952 120.96C163.148 120.129 167.497 120.561 171.448 122.201C175.399 123.84 178.776 126.614 181.151 130.171C183.527 133.729 184.794 137.911 184.794 142.189V142.202C184.794 147.941 182.515 153.446 178.456 157.504C174.398 161.563 168.893 163.843 163.154 163.843L163.1 163.829Z" fill="white"/>
</g>
</g>
<defs>
<clipPath id="clip0_2009_3549">
<rect width="256" height="256" fill="white"/>
</clipPath>
<clipPath id="clip1_2009_3549">
<rect width="162" height="162" fill="white" transform="translate(47 47)"/>
</clipPath>
</defs>
</svg>
