<svg width="32" height="32" viewBox="0 0 32 32" fill="none" xmlns="http://www.w3.org/2000/svg">
<g clip-path="url(#clip0_2031_7361)">
<path d="M16.0052 0C9.32537 0 7.37176 0.00689376 6.99202 0.0383999C5.62121 0.152378 4.76821 0.368277 3.83889 0.831073C3.12273 1.18681 2.5579 1.59915 2.00047 2.17717C0.98528 3.23128 0.37001 4.52813 0.147278 6.06968C0.0389956 6.81805 0.00748918 6.97067 0.00109119 10.7933C-0.00136399 12.0675 0.00109119 13.7444 0.00109119 15.9937C0.00109119 22.67 0.00846879 24.6221 0.0404708 25.0013C0.15122 26.3355 0.360406 27.175 0.803403 28.0932C1.65002 29.8509 3.26693 31.1704 5.17181 31.6627C5.83139 31.8326 6.55986 31.9261 7.49507 31.9704C7.89131 31.9877 11.9299 32 15.971 32C20.0121 32 24.0532 31.9951 24.4396 31.9754C25.5224 31.9244 26.1513 31.84 26.8465 31.6603C28.7637 31.1655 30.3511 29.8657 31.2149 28.0834C31.6493 27.1873 31.8696 26.3158 31.9692 25.0512C31.9909 24.7755 32 20.3796 32 15.9895C32 11.5988 31.9902 7.21094 31.9685 6.93522C31.8676 5.65019 31.6473 4.78613 31.1989 3.87281C30.831 3.12518 30.4225 2.56685 29.8293 1.99599C28.7708 0.984697 27.4763 0.369257 25.9337 0.146718C25.1863 0.0386419 25.0374 0.00663987 21.2129 0H16.0052Z" fill="url(#paint0_radial_2031_7361)"/>
<path d="M16.0052 0C9.32537 0 7.37176 0.00689376 6.99202 0.0383999C5.62121 0.152378 4.76821 0.368277 3.83889 0.831073C3.12273 1.18681 2.5579 1.59915 2.00047 2.17717C0.98528 3.23128 0.37001 4.52813 0.147278 6.06968C0.0389956 6.81805 0.00748918 6.97067 0.00109119 10.7933C-0.00136399 12.0675 0.00109119 13.7444 0.00109119 15.9937C0.00109119 22.67 0.00846879 24.6221 0.0404708 25.0013C0.15122 26.3355 0.360406 27.175 0.803403 28.0932C1.65002 29.8509 3.26693 31.1704 5.17181 31.6627C5.83139 31.8326 6.55986 31.9261 7.49507 31.9704C7.89131 31.9877 11.9299 32 15.971 32C20.0121 32 24.0532 31.9951 24.4396 31.9754C25.5224 31.9244 26.1513 31.84 26.8465 31.6603C28.7637 31.1655 30.3511 29.8657 31.2149 28.0834C31.6493 27.1873 31.8696 26.3158 31.9692 25.0512C31.9909 24.7755 32 20.3796 32 15.9895C32 11.5988 31.9902 7.21094 31.9685 6.93522C31.8676 5.65019 31.6473 4.78613 31.1989 3.87281C30.831 3.12518 30.4225 2.56685 29.8293 1.99599C28.7708 0.984697 27.4763 0.369257 25.9337 0.146718C25.1863 0.0386419 25.0374 0.00663987 21.2129 0H16.0052Z" fill="url(#paint1_radial_2031_7361)"/>
<path d="M16.0052 0C9.32537 0 7.37176 0.00689376 6.99202 0.0383999C5.62121 0.152378 4.76821 0.368277 3.83889 0.831073C3.12273 1.18681 2.5579 1.59915 2.00047 2.17717C0.98528 3.23128 0.37001 4.52813 0.147278 6.06968C0.0389956 6.81805 0.00748918 6.97067 0.00109119 10.7933C-0.00136399 12.0675 0.00109119 13.7444 0.00109119 15.9937C0.00109119 22.67 0.00846879 24.6221 0.0404708 25.0013C0.15122 26.3355 0.360406 27.175 0.803403 28.0932C1.65002 29.8509 3.26693 31.1704 5.17181 31.6627C5.83139 31.8326 6.55986 31.9261 7.49507 31.9704C7.89131 31.9877 11.9299 32 15.971 32C20.0121 32 24.0532 31.9951 24.4396 31.9754C25.5224 31.9244 26.1513 31.84 26.8465 31.6603C28.7637 31.1655 30.3511 29.8657 31.2149 28.0834C31.6493 27.1873 31.8696 26.3158 31.9692 25.0512C31.9909 24.7755 32 20.3796 32 15.9895C32 11.5988 31.9902 7.21094 31.9685 6.93522C31.8676 5.65019 31.6473 4.78613 31.1989 3.87281C30.831 3.12518 30.4225 2.56685 29.8293 1.99599C28.7708 0.984697 27.4763 0.369257 25.9337 0.146718C25.1863 0.0386419 25.0374 0.00663987 21.2129 0H16.0052Z" fill="url(#paint2_radial_2031_7361)"/>
<path d="M16.0052 0C9.32537 0 7.37176 0.00689376 6.99202 0.0383999C5.62121 0.152378 4.76821 0.368277 3.83889 0.831073C3.12273 1.18681 2.5579 1.59915 2.00047 2.17717C0.98528 3.23128 0.37001 4.52813 0.147278 6.06968C0.0389956 6.81805 0.00748918 6.97067 0.00109119 10.7933C-0.00136399 12.0675 0.00109119 13.7444 0.00109119 15.9937C0.00109119 22.67 0.00846879 24.6221 0.0404708 25.0013C0.15122 26.3355 0.360406 27.175 0.803403 28.0932C1.65002 29.8509 3.26693 31.1704 5.17181 31.6627C5.83139 31.8326 6.55986 31.9261 7.49507 31.9704C7.89131 31.9877 11.9299 32 15.971 32C20.0121 32 24.0532 31.9951 24.4396 31.9754C25.5224 31.9244 26.1513 31.84 26.8465 31.6603C28.7637 31.1655 30.3511 29.8657 31.2149 28.0834C31.6493 27.1873 31.8696 26.3158 31.9692 25.0512C31.9909 24.7755 32 20.3796 32 15.9895C32 11.5988 31.9902 7.21094 31.9685 6.93522C31.8676 5.65019 31.6473 4.78613 31.1989 3.87281C30.831 3.12518 30.4225 2.56685 29.8293 1.99599C28.7708 0.984697 27.4763 0.369257 25.9337 0.146718C25.1863 0.0386419 25.0374 0.00663987 21.2129 0H16.0052Z" fill="url(#paint3_radial_2031_7361)"/>
<path d="M16.0065 4.10889C12.7752 4.10889 12.3697 4.123 11.1006 4.18072C9.834 4.23867 8.96942 4.43905 8.21291 4.73307C7.43038 5.03673 6.76658 5.44293 6.10526 6.10401C5.44345 6.76485 5.03693 7.42815 4.73206 8.20985C4.43708 8.96605 4.2363 9.83022 4.1793 11.0954C4.12254 12.3636 4.10767 12.769 4.10767 15.9979C4.10767 19.2268 4.12205 19.6307 4.17954 20.8989C4.2378 22.1646 4.43833 23.0285 4.7323 23.7844C5.03644 24.5664 5.44295 25.2297 6.10451 25.8905C6.7656 26.5519 7.42939 26.9591 8.21142 27.2627C8.96842 27.5567 9.83326 27.7571 11.0996 27.8151C12.3687 27.8728 12.774 27.8869 16.005 27.8869C19.2365 27.8869 19.6408 27.8728 20.9099 27.8151C22.1765 27.7571 23.0421 27.5567 23.7991 27.2627C24.5814 26.9591 25.2442 26.5519 25.9053 25.8905C26.5671 25.2297 26.9736 24.5664 27.2785 23.7847C27.5709 23.0285 27.7717 22.1643 27.8312 20.8991C27.8882 19.631 27.9031 19.2267 27.9031 15.9979C27.9031 12.769 27.8882 12.3638 27.8312 11.0957C27.7717 9.82997 27.5709 8.96605 27.2785 8.2101C26.9736 7.42815 26.5671 6.76484 25.9053 6.10401C25.2434 5.44268 24.5816 5.03647 23.7983 4.73306C23.0399 4.43905 22.1748 4.23867 20.9082 4.18072C19.639 4.123 19.235 4.10889 16.0028 4.10889H16.0065ZM14.9392 6.25139C15.2559 6.25089 15.6094 6.25139 16.0065 6.25139C19.1832 6.25139 19.5597 6.26278 20.8142 6.31975C21.9743 6.37276 22.6038 6.56644 23.0232 6.72917C23.5785 6.94466 23.9743 7.20226 24.3905 7.61837C24.8069 8.03449 25.0647 8.43079 25.2809 8.9856C25.4437 9.40419 25.6378 10.0333 25.6906 11.1925C25.7476 12.4458 25.76 12.8223 25.76 15.9952C25.76 19.168 25.7476 19.5445 25.6906 20.7978C25.6375 21.957 25.4437 22.5861 25.2809 23.0047C25.0652 23.5595 24.8069 23.9546 24.3905 24.3705C23.9741 24.7866 23.5787 25.0442 23.0232 25.2597C22.6043 25.4231 21.9743 25.6163 20.8142 25.6693C19.56 25.7263 19.1832 25.7387 16.0065 25.7387C12.8295 25.7387 12.453 25.7263 11.1988 25.6693C10.0387 25.6159 9.40915 25.4222 8.9895 25.2594C8.43426 25.0439 8.03766 24.7863 7.62125 24.3702C7.20482 23.9541 6.94704 23.5588 6.73089 23.0037C6.56804 22.5851 6.37396 21.956 6.32116 20.7968C6.26415 19.5435 6.25274 19.1671 6.25274 15.9922C6.25274 12.8173 6.26415 12.4428 6.32116 11.1895C6.37421 10.0303 6.56804 9.40123 6.73089 8.98214C6.94653 8.42732 7.20482 8.03102 7.62125 7.61491C8.03766 7.19879 8.43426 6.9412 8.9895 6.72522C9.4089 6.56173 10.0387 6.36855 11.1988 6.31528C12.2963 6.26575 12.7217 6.25089 14.9392 6.2484L14.9392 6.25139ZM22.3575 8.22545C21.5692 8.22545 20.9297 8.86375 20.9297 9.65163C20.9297 10.4393 21.5692 11.0783 22.3575 11.0783C23.1457 11.0783 23.7852 10.4393 23.7852 9.65163C23.7852 8.86399 23.1457 8.22497 22.3575 8.22497L22.3575 8.22545ZM16.0065 9.89239C12.6322 9.89239 9.89646 12.6261 9.89646 15.9979C9.89646 19.3697 12.6322 22.1021 16.0065 22.1021C19.3808 22.1021 22.1155 19.3697 22.1155 15.9979C22.1155 12.6261 19.3805 9.89239 16.0063 9.89239H16.0065ZM16.0065 12.0349C18.1967 12.0349 19.9724 13.8091 19.9724 15.9979C19.9724 18.1865 18.1967 19.9609 16.0065 19.9609C13.8161 19.9609 12.0406 18.1865 12.0406 15.9979C12.0406 13.8091 13.8161 12.0349 16.0065 12.0349Z" fill="white"/>
</g>
<defs>
<radialGradient id="paint0_radial_2031_7361" cx="0" cy="0" r="1" gradientTransform="matrix(-19.6786 5.54981 -3.99844 -14.1774 30.9667 14.9988)" gradientUnits="userSpaceOnUse">
<stop stop-color="#FF005F"/>
<stop offset="1" stop-color="#FC01D8"/>
</radialGradient>
<radialGradient id="paint1_radial_2031_7361" cx="0" cy="0" r="1" gradientUnits="userSpaceOnUse" gradientTransform="translate(8.49976 34.4647) rotate(-90) scale(25.543 27.1006)">
<stop stop-color="#FFCC00"/>
<stop offset="0.1242" stop-color="#FFCC00"/>
<stop offset="0.5672" stop-color="#FE4A05"/>
<stop offset="0.6942" stop-color="#FF0F3F"/>
<stop offset="1" stop-color="#FE0657" stop-opacity="0"/>
</radialGradient>
<radialGradient id="paint2_radial_2031_7361" cx="0" cy="0" r="1" gradientTransform="matrix(5.30182 -9.1352 11.893 6.9024 16.8086 31.5487)" gradientUnits="userSpaceOnUse">
<stop stop-color="#FFCC00"/>
<stop offset="1" stop-color="#FFCC00" stop-opacity="0"/>
</radialGradient>
<radialGradient id="paint3_radial_2031_7361" cx="0" cy="0" r="1" gradientTransform="matrix(-19.4625 5.48032 -1.86666 -6.631 4.34171 1.30303)" gradientUnits="userSpaceOnUse">
<stop stop-color="#780CFF"/>
<stop offset="1" stop-color="#820BFF" stop-opacity="0"/>
</radialGradient>
<clipPath id="clip0_2031_7361">
<rect width="32" height="32" fill="white"/>
</clipPath>
</defs>
</svg>
