<svg width="513" height="512" viewBox="0 0 513 512" fill="none" xmlns="http://www.w3.org/2000/svg">
<g clip-path="url(#clip0_1_23)">
<path d="M0.00500488 0H512.005V512H0.00500488V0Z" fill="#201851"/>
<path d="M419.857 195.551C450.497 256.521 444.412 329.515 404.098 384.569C388.121 377.933 366.975 372.597 360.099 370.943C353.349 363.766 333.055 344.065 316.496 346.437C299.021 348.881 282.919 366.2 281.13 368.156C279.858 369.559 279.183 371.402 279.247 373.294C279.57 383.113 279.164 393.484 278.332 398.737L276.699 398.289C270.198 396.5 260.358 393.796 252.349 400.203C244.34 406.611 244.267 418.177 245.203 425.75C237.766 428.652 229.164 433.239 226.896 439.49C224.93 444.878 226.948 451.254 229.704 457.433C204.874 453.701 181.092 444.845 159.868 431.429C167.617 422.411 173.223 410.688 175.304 405.934C178.913 403.105 186.683 396.219 189.814 387.357C192.945 378.495 191.51 368.281 190.657 363.766C193.892 353.853 199.311 334.07 194.287 325.28C189.648 317.177 176.729 312.32 169.989 310.26C166.473 305.247 157.694 295.095 142.944 292.577C139.678 292.245 129.017 290.123 129.017 277.214C129.017 267.853 137.192 251.845 141.436 244.543C148.114 241.1 157.746 235.233 160.273 228.94C162.354 223.739 163.259 214.471 163.56 210.384C167.003 203.851 177.852 180.781 169.032 164.908C165.974 159.416 157.923 155.931 152.753 154.173L141.041 136.605C168.301 114.113 201.535 100.069 236.663 96.1944C237.463 91.085 238.635 86.0407 240.168 81.1016C198.471 84.6298 158.997 101.407 127.519 128.98C127.441 129.007 127.364 129.038 127.29 129.074C127.02 129.302 126.769 129.553 126.541 129.823C81.246 169.791 56.8408 228.364 60.3556 288.669C63.8704 348.975 94.9148 404.316 144.546 438.752C144.754 438.866 144.91 439.064 145.108 439.157C173.542 458.87 206.696 470.689 241.188 473.41C241.38 473.455 241.574 473.489 241.77 473.514H241.978C246.919 473.888 251.881 474.128 256.915 474.128C317.133 474.128 374.029 446.528 411.307 399.236C411.646 398.892 411.946 398.512 412.201 398.102C460.735 335.979 467.392 250.847 429.104 181.935C426.15 186.491 423.05 191.078 419.857 195.551Z" fill="#3B86FB"/>
<path d="M344.424 21.9371C297.814 21.9371 249.624 56.5537 249.624 114.512C249.624 169.64 335.801 250.003 339.473 253.394C342.266 255.984 346.583 255.984 349.375 253.394C353.037 250.003 439.225 169.672 439.225 114.512C439.225 56.5537 391.023 21.9371 344.424 21.9371ZM392.324 161.662C370.755 184.652 335.893 189.071 309.27 172.19C282.647 155.309 271.777 121.891 283.373 92.5777C294.97 63.2644 325.76 46.3277 356.727 52.2288C387.693 58.1299 410.097 85.2035 410.1 116.727C410.124 133.425 403.764 149.5 392.324 161.662Z" fill="#FF875F"/>
<path d="M345.652 115.853C358.853 115.853 369.554 105.152 369.554 91.9505C369.554 78.7493 358.853 68.0475 345.652 68.0475C332.45 68.0475 321.749 78.7493 321.749 91.9505C321.749 105.152 332.45 115.853 345.652 115.853Z" fill="white"/>
<path d="M389.931 155.91C378.441 168.178 362.482 175.283 345.677 175.612C328.872 175.941 312.647 169.466 300.685 157.658C307.449 139.08 324.942 126.575 344.709 126.188C364.476 125.801 382.446 137.611 389.931 155.91Z" fill="white"/>
</g>
<defs>
<clipPath id="clip0_1_23">
<rect width="513" height="512" fill="white"/>
</clipPath>
</defs>
</svg>
