<svg width="32" height="32" viewBox="0 0 32 32" fill="none" xmlns="http://www.w3.org/2000/svg">
<g clip-path="url(#clip0_2031_7463)">
<path fill-rule="evenodd" clip-rule="evenodd" d="M16 0C6.98592 0 0 6.60282 0 15.5203C0 20.1851 1.91227 24.2157 5.02535 27.0004C5.28612 27.2354 5.44386 27.5606 5.45674 27.9115L5.54366 30.7573C5.57264 31.6652 6.50946 32.2543 7.34004 31.8905L10.5143 30.4901C10.7847 30.371 11.0841 30.3485 11.3674 30.4258C12.8258 30.8282 14.3807 31.0406 16 31.0406C25.0141 31.0406 32 24.4378 32 15.5203C32 6.60282 25.0141 0 16 0Z" fill="url(#paint0_linear_2031_7463)"/>
<path fill-rule="evenodd" clip-rule="evenodd" d="M6.39345 20.0596L11.0936 12.6037C11.8405 11.419 13.4437 11.1228 14.5641 11.963L18.3017 14.767C18.6462 15.0246 19.1162 15.0214 19.4574 14.7638L24.5053 10.9328C25.1782 10.421 26.0602 11.229 25.6063 11.9437L20.9093 19.3964C20.1625 20.5811 18.5592 20.8773 17.4389 20.0371L13.7013 17.233C13.3568 16.9755 12.8868 16.9787 12.5456 17.2363L7.49445 21.0705C6.82162 21.5823 5.93952 20.7743 6.39345 20.0596Z" fill="white"/>
</g>
<defs>
<linearGradient id="paint0_linear_2031_7463" x1="16" y1="0" x2="16" y2="31.9996" gradientUnits="userSpaceOnUse">
<stop stop-color="#00B2FF"/>
<stop offset="1" stop-color="#006AFF"/>
</linearGradient>
<clipPath id="clip0_2031_7463">
<rect width="32" height="32" fill="white"/>
</clipPath>
</defs>
</svg>
