<svg width="256" height="256" viewBox="0 0 256 256" fill="none" xmlns="http://www.w3.org/2000/svg">
<g id="urn:talqui:pipefy:0" clip-path="url(#clip0_2069_3773)">
<rect id="background" width="256" height="256" fill="#093FA7"/>
<g id="Group">
<path id="Vector" d="M218.064 136.476L203.379 111.043C203.258 110.833 203.035 110.703 202.792 110.703H193.176C193.08 110.703 193.004 110.739 192.922 110.775C192.893 110.77 192.867 110.752 192.838 110.752H187.536C187.538 110.701 187.541 109.368 187.545 109.319C187.927 102.516 193.878 100.791 195.906 100.429C196.228 100.372 196.461 100.09 196.457 99.7625L196.446 92.6744C196.446 92.4885 196.369 92.311 196.234 92.1836C196.098 92.0561 195.916 91.9902 195.731 92.0012C191.878 92.2478 178.537 95.2564 177.835 109.319L177.826 110.75H173.747C173.591 110.751 173.441 110.813 173.331 110.924C173.221 111.035 173.16 111.185 173.16 111.341V118.211C173.16 118.538 173.422 118.805 173.747 118.805H177.191C177.513 118.805 177.777 119.069 177.777 119.391V149.266C177.777 149.632 178.073 149.928 178.437 149.928H186.814C187.002 149.925 187.181 149.842 187.303 149.699C187.452 149.575 187.539 149.392 187.541 149.199V119.416C187.541 119.238 187.614 119.076 187.73 118.956C187.843 118.86 187.986 118.807 188.134 118.805L196.22 118.696C196.464 118.693 196.691 118.823 196.813 119.036L206.883 136.478C207.001 136.683 207.004 136.935 206.892 137.143L193.538 161.986C193.425 162.196 193.43 162.451 193.552 162.656C193.674 162.861 193.895 162.987 194.133 162.988H203.768C204.016 162.988 204.243 162.851 204.361 162.633L218.07 137.143C218.184 136.934 218.182 136.682 218.064 136.476ZM231.915 111.641L221.399 131.212C221.282 131.426 221.06 131.561 220.817 131.566C220.573 131.57 220.346 131.444 220.221 131.234L215.177 122.618C215.057 122.413 215.053 122.16 215.166 121.951L221.061 111.037C221.175 110.82 221.399 110.684 221.643 110.681C223.196 110.663 228.914 110.615 231.335 110.641C231.572 110.644 231.79 110.772 231.909 110.977C232.028 111.182 232.03 111.434 231.915 111.641ZM161.128 126.062H142.346C142.115 126.064 141.9 125.946 141.779 125.75C141.657 125.554 141.648 125.309 141.753 125.104C142.748 123.142 145.619 118.862 151.747 118.862C157.764 118.862 160.688 123.135 161.717 125.097C161.822 125.303 161.813 125.548 161.693 125.745C161.573 125.941 161.359 126.062 161.128 126.062ZM151.785 109.206C140.417 109.206 131.203 118.471 131.203 129.899C131.203 141.329 140.417 150.592 151.785 150.592C157.922 150.592 165.85 147.57 170.234 139.018C170.336 138.812 170.324 138.567 170.203 138.372C170.082 138.176 169.868 138.056 169.638 138.056H159.562C159.396 138.057 159.236 138.122 159.117 138.238C158.365 138.957 157.505 139.554 156.569 140.009C155.258 140.644 153.669 141.058 151.745 141.058C145.686 141.058 142.761 137.08 141.939 134.969C141.865 134.767 141.895 134.541 142.019 134.364C142.143 134.188 142.346 134.084 142.561 134.085L171.34 134.09C171.672 134.08 171.948 133.833 171.996 133.505C172.096 132.699 172.231 131.883 172.276 131.052C172.628 125.392 170.628 119.838 166.748 115.702C162.869 111.566 157.453 109.216 151.783 109.206M109.314 141.049C105.501 141.934 101.501 140.787 98.7378 138.014C95.9698 135.236 94.8256 131.229 95.7092 127.408C96.6334 123.187 99.925 119.887 104.144 118.951C107.957 118.065 111.957 119.213 114.72 121.987C117.489 124.764 118.633 128.771 117.749 132.592C116.824 136.813 113.533 140.113 109.314 141.049ZM115.631 111.146C106.404 107.113 98.5933 111.121 96.1092 112.725C94.8071 113.57 94.8649 110.815 93.6206 110.815H86.3103C86.1349 110.814 85.9665 110.883 85.8423 111.007C85.718 111.131 85.6482 111.299 85.6482 111.474V162.44C85.6482 162.804 85.9437 163.102 86.3081 163.102H94.6094C94.7848 163.102 94.953 163.032 95.0768 162.908C95.2006 162.783 95.2699 162.615 95.2693 162.44V147.919C95.2693 147.408 95.8225 147.086 96.2603 147.348C98.0912 148.459 102.3 150.594 107.472 150.594C119.493 150.594 129.136 140.178 127.901 127.875C127.161 120.527 122.379 114.099 115.631 111.146ZM46.6639 141.049C42.8507 141.934 38.8506 140.787 36.0873 138.014C33.3202 135.235 32.1769 131.229 33.061 127.408C33.9852 123.187 37.2768 119.887 41.4956 118.951C45.3088 118.065 49.3091 119.213 52.0721 121.987C54.8397 124.765 55.983 128.772 55.0984 132.592C54.1742 136.813 50.8827 140.113 46.6639 141.049ZM52.9831 111.146C43.7553 107.113 35.9474 111.121 33.4588 112.725C32.1589 113.57 32.2145 110.815 30.9702 110.815H23.6599C23.2955 110.815 23 111.11 23 111.474V162.44C23 162.804 23.2955 163.102 23.6599 163.102H31.9589C32.1344 163.102 32.3025 163.032 32.4264 162.908C32.5502 162.783 32.6195 162.615 32.6189 162.44V147.919C32.6189 147.408 33.1721 147.086 33.6099 147.348C35.443 148.459 39.6514 150.594 44.8219 150.594C56.8471 150.594 66.486 140.178 65.2506 127.875C64.5107 120.527 59.7312 114.099 52.9831 111.146ZM79.0134 110.817H70.6966C70.522 110.816 70.3541 110.884 70.2302 111.007C70.1064 111.13 70.0367 111.298 70.0367 111.472V149.47C70.0367 149.837 70.3344 150.132 70.6988 150.132H79.0156C79.3805 150.131 79.6756 149.835 79.6756 149.47V111.477C79.6743 111.111 79.3786 110.816 79.0134 110.815" fill="white"/>
</g>
</g>
<defs>
<clipPath id="clip0_2069_3773">
<rect width="256" height="256" fill="white"/>
</clipPath>
</defs>
</svg>
