<svg width="256" height="256" viewBox="0 0 256 256" fill="none" xmlns="http://www.w3.org/2000/svg">
<g id="urn:talqui:pipedrive:0" clip-path="url(#clip0_2009_3555)">
<rect id="background" width="256" height="256" fill="#007737"/>
<g id="pipedrive-logo">
<path id="Clip-5" d="M108.477 107.809C108.477 123.811 116.595 141.073 134.458 141.073C147.706 141.073 161.1 130.73 161.1 107.574C161.1 87.2725 150.571 73.6433 134.899 73.6433C122.129 73.6433 108.477 82.6141 108.477 107.809ZM141.192 44C173.222 44 194.758 69.3679 194.758 107.129C194.758 144.298 172.071 170.246 139.637 170.246C124.173 170.246 114.268 163.623 109.089 158.829C109.126 159.966 109.15 161.239 109.15 162.598V213H75.97V78.7095C75.97 76.7571 75.3456 76.1393 73.4111 76.1393H62V46.7308H89.8422C102.661 46.7308 105.943 53.255 106.567 58.2841C111.771 52.4519 122.557 44 141.192 44Z" fill="white"/>
</g>
</g>
<defs>
<clipPath id="clip0_2009_3555">
<rect width="256" height="256" fill="white"/>
</clipPath>
</defs>
</svg>
