<svg height="512" viewBox="0 0 513 512" width="513" xmlns="http://www.w3.org/2000/svg" xmlns:xlink="http://www.w3.org/1999/xlink"><radialGradient id="a" cx="-143.691974%" cy="-81.103031%" gradientTransform="matrix(1 0 0 .783234 0 -.175804)" r="279.707407%"><stop offset=".23" stop-color="#fff"/><stop offset="1" stop-color="#fff" stop-opacity="0"/></radialGradient><g fill="none" transform="translate(.005001)"><path d="m0 0h512v512h-512z" fill="#ffd262"/><path d="m241.848567 63.0547508h71.906547c7.818494 0 14.156635 6.338141 14.156635 14.1566341v302.1156781c0 3.754572-1.491499 7.355368-4.146383 10.010252-2.654883 2.654883-6.255679 4.146382-10.010252 4.146382h-230.4899737c-7.8161157-.005737-14.1508975-6.340519-14.1566341-14.156634v-302.1156781c0-7.8184931 6.338141-14.1566341 14.1566341-14.1566341h72.8114907" fill="url(#a)"/><path d="m291.245962 95.9863478h71.906548c7.818493 0 14.15673 6.3381412 14.15673 14.1566342v302.115678c.013774 3.770797-1.47732 7.391305-4.142718 10.058655-2.665397 2.66735-6.284812 4.161095-10.055619 4.150048h-230.489974c-7.816115-.005798-14.150897-6.34058-14.156634-14.156695v-302.167686c0-7.818493 6.338141-14.1566342 14.156634-14.1566342h72.811491" fill="#fff"/><g fill="#ffd262"><rect height="19.180627" rx="9.22" width="181.217398" x="141.732767" y="138.893119"/><rect height="19.180627" rx="9.22" width="190.932532" x="141.732767" y="183.048087"/><rect height="19.180627" rx="8.17" width="142.388071" x="141.732767" y="227.192654"/><rect height="19.180627" rx="9.22" width="110.715072" x="141.732767" y="271.347622"/></g><path d="m454.884586 193.740975 4.160657 4.160656c3.366466 3.365137 5.257839 7.930041 5.257839 12.690003s-1.891373 9.324866-5.257839 12.690003l-169.546757 169.546756c-.344399.340509-.765233.593723-1.227393.738517l-36.717795 11.441805c-1.060701.326607-2.21505.04002-2.99983-.74476s-1.071367-1.93913-.744761-2.999831l11.441806-36.707392c.138088-.465146.392229-.887521.738517-1.227394l169.546756-169.546757c6.992627-7.001175 18.333229-7.019789 25.3488-.041606z" fill="#3b86fb"/></g></svg>