<svg width="32" height="32" viewBox="0 0 32 32" fill="none" xmlns="http://www.w3.org/2000/svg">
<g clip-path="url(#clip0_4012_276)">
<path d="M16.0125 32.0249C24.8559 32.0249 32.0249 24.8559 32.0249 16.0125C32.0249 7.16903 24.8559 0 16.0125 0C7.16903 0 0 7.16903 0 16.0125C0 24.8559 7.16903 32.0249 16.0125 32.0249Z" fill="url(#paint0_linear_4012_276)"/>
<path fill-rule="evenodd" clip-rule="evenodd" d="M7.23306 15.8379C11.8971 13.7927 15.0148 12.4708 16.5861 11.8223C21.0257 9.97662 21.9486 9.65238 22.5472 9.62744C22.6719 9.62744 22.9712 9.65238 23.1707 9.80203C23.3204 9.92674 23.3702 10.1013 23.3952 10.226C23.4201 10.3507 23.4451 10.6251 23.4201 10.8496C23.1707 13.3687 22.1481 19.5292 21.5994 22.3476C21.3749 23.5448 20.926 23.9439 20.502 23.9938C19.5791 24.0686 18.8558 23.3702 17.9579 22.7966C16.5612 21.8737 15.7631 21.3001 14.3913 20.4022C12.82 19.3546 13.8426 18.781 14.7405 17.8582C14.9649 17.6087 19.0803 13.8924 19.1551 13.5433C19.1551 13.4934 19.1801 13.3437 19.0803 13.2689C18.9805 13.1941 18.8558 13.219 18.7561 13.244C18.6064 13.2689 16.3617 14.7654 11.9969 17.7085C11.3484 18.1574 10.7748 18.357 10.251 18.357C9.67734 18.357 8.57991 18.0327 7.75684 17.7584C6.75918 17.4341 5.96105 17.2596 6.03587 16.7108C6.08575 16.4365 6.48482 16.1372 7.23306 15.8379Z" fill="white"/>
</g>
<defs>
<linearGradient id="paint0_linear_4012_276" x1="0" y1="16.0009" x2="32.0018" y2="16.0009" gradientUnits="userSpaceOnUse">
<stop stop-color="#2AABEE"/>
<stop offset="1" stop-color="#229ED9"/>
</linearGradient>
<clipPath id="clip0_4012_276">
<rect width="32" height="32" fill="white"/>
</clipPath>
</defs>
</svg>
