<svg height="512" viewBox="0 0 513 512" width="513" xmlns="http://www.w3.org/2000/svg" xmlns:xlink="http://www.w3.org/1999/xlink"><radialGradient id="a" cx="-70.377868%" cy="-40.440846%" r="184.491678%"><stop offset=".42" stop-color="#fff"/><stop offset="1" stop-color="#2e76e2"/></radialGradient><linearGradient id="b" x1="347.501677%" x2="-39.268947%" y1="-131.841046%" y2="104.577465%"><stop offset="0" stop-color="#2f7eff"/><stop offset=".24" stop-color="#5493ef"/><stop offset=".56" stop-color="#2d72d6"/><stop offset=".9" stop-color="#2f7eff"/><stop offset="1" stop-color="#2f7eff"/></linearGradient><g fill="none" transform="translate(.005001)"><path d="m0 0h512v512h-512z" fill="#3b86fb"/><path d="m443.848449 162.015968v246.664527c0 3.270846-1.294648 6.408671-3.60651 8.722484-2.311863 2.313813-5.448592 3.613863-8.719439 3.613863h-357.6708453c-6.8131762 0-12.3363468-5.523171-12.3363468-12.336347v-246.664527z" fill="#fff"/><path d="m431.512098 75.6823392h-357.6604433c-6.8131762 0-12.3363468 5.523175-12.3363468 12.3363512v61.6713326h382.3331411v-61.6713326c0-3.2726488-1.296073-6.4120524-3.610186-8.7261654s-5.453516-3.6129443-8.726165-3.6101858zm-332.9981513 49.3349948c-6.8131762 0-12.3363468-5.523175-12.3363468-12.336352 0-6.813176 5.5231706-12.336346 12.3363468-12.336346 6.8131763 0 12.3363513 5.52317 12.3363513 12.336346.002758 3.272649-1.296073 6.412053-3.610186 8.726166s-5.453516 3.612944-8.7261653 3.610186zm43.1668123 0c-6.813176 0-12.336347-5.523175-12.336347-12.336352 0-6.813176 5.523171-12.336346 12.336347-12.336346s12.336351 5.52317 12.336351 12.336346c.002759 3.272649-1.296073 6.412053-3.610186 8.726166s-5.453516 3.612944-8.726165 3.610186zm43.166812 0c-6.813176 0-12.336347-5.523175-12.336347-12.336352 0-6.813176 5.523171-12.336346 12.336347-12.336346s12.336351 5.52317 12.336351 12.336346c.002759 3.272649-1.296072 6.412053-3.610185 8.726166s-5.453517 3.612944-8.726166 3.610186z" fill="#ffd262"/><path d="m127.742559 388.657336c3.513909 0 6.883189-1.399103 9.361478-3.890215l48.419641-48.419641 23.809357 23.809357c1.757086 1.761017 4.351496 2.39144 6.720768 1.633097 2.369271-.758342 4.115437-2.77807 4.523407-5.232065l13.272494-79.666172c.291842-1.736699-.118578-3.518183-1.140875-4.95213s-2.572631-2.402757-4.309585-2.693077c-.722765-.124819-1.461579-.124819-2.184344 0l-79.666173 13.282897c-1.736741.287986-3.287886 1.25425-4.312053 2.686133-1.024167 1.431882-1.43742 3.212034-1.148809 4.948672.231971 1.361646.878565 2.618507 1.851493 3.598967l23.809357 23.809358-48.419641 48.419641c-3.7877 3.795836-4.921513 9.496869-2.874415 14.45312s6.873546 8.195497 12.235892 8.212058z" fill="#1b1b1b"/><g fill="#3b86fb"><rect height="15.488044" rx="7.44" width="155.327713" x="76.722508" y="188.373728"/><rect height="15.488044" rx="7.44" width="155.327713" x="269.152876" y="188.373728"/><rect height="15.488044" rx="7.44" width="68.87967" x="76.722508" y="222.584727"/><rect height="15.488044" rx="7.44" width="106.32558" x="267.769458" y="222.584727"/></g><circle cx="141.673799" cy="112.757893" fill="#ff875f" r="12.336347" transform="matrix(.09862505 -.99512467 .99512467 .09862505 15.493054 242.620233)"/><circle cx="98.503929" cy="112.755473" fill="#201851" r="12.336347" transform="matrix(.09862505 -.99512467 .99512467 .09862505 -23.416778 199.658649)"/><circle cx="365.908945" cy="368.582167" fill="url(#a)" r="92.491396"/><circle cx="366.262601" cy="368.582167" fill="#fff" r="92.491396"/><circle cx="366.262601" cy="368.582167" fill="#3b86fb" r="81.507263"/><path d="m367.177945 413.27802c-38.579688 0-63.668447-36.94663-64.719013-38.766917-.533719-.9495-.533719-2.108584 0-3.058083 1.040164-1.851492 25.952095-38.798123 64.719013-38.798123 38.569287 0 63.658046 36.936229 64.708612 38.756516.570625.961905.570625 2.158589 0 3.120493-1.029762 1.809885-26.305751 38.746114-64.708612 38.746114z" fill="#fff"/><circle cx="367.20915" cy="372.961258" fill="url(#b)" r="31.017695"/><circle cx="367.562806" cy="373.304512" fill="#1b1b1b" r="20.59525"/><circle cx="346.541089" cy="359.199886" fill="#fff" r="13.168478"/></g></svg>