<svg width="32" height="32" viewBox="0 0 32 32" fill="none" xmlns="http://www.w3.org/2000/svg">
<g clip-path="url(#clip0_2031_7540)">
<path d="M32 23.8795C32 24.0548 31.9945 24.4329 31.9836 24.7288C31.9562 25.4466 31.9014 26.3726 31.8137 26.7945C31.6822 27.4301 31.4904 28.0274 31.2329 28.526C30.9315 29.1178 30.5479 29.6438 30.0877 30.0986C29.6329 30.5534 29.1068 30.937 28.5151 31.2384C28.0164 31.4959 27.4137 31.6877 26.7726 31.8192C26.3562 31.9014 25.4356 31.9616 24.7233 31.9836C24.4274 31.9945 24.0493 32 23.874 32H8.11507C7.93973 32 7.56164 31.9945 7.26575 31.9836C6.54795 31.9562 5.62192 31.9014 5.2 31.8137C4.56438 31.6822 3.96712 31.4904 3.46849 31.2329C2.87671 30.9315 2.35068 30.5479 1.89589 30.0877C1.4411 29.6329 1.05753 29.1068 0.756164 28.5151C0.49863 28.0164 0.306849 27.4137 0.175342 26.7726C0.0931507 26.3562 0.0328767 25.4356 0.0109589 24.7233C0.00547945 24.4329 0 24.0548 0 23.8795V8.12055C0 7.94521 0.00547945 7.56712 0.0164384 7.27123C0.0438356 6.55342 0.0986301 5.6274 0.186301 5.20548C0.317808 4.56986 0.509589 3.9726 0.767123 3.47397C1.06849 2.88219 1.45205 2.35616 1.90685 1.90137C2.36164 1.44658 2.88767 1.06301 3.47945 0.761644C3.97808 0.50411 4.58082 0.312329 5.22192 0.180822C5.63836 0.0986301 6.5589 0.0383562 7.27123 0.0164384C7.56712 0.00547945 7.94521 0 8.12055 0H23.8795C24.0548 0 24.4329 0.00547945 24.7288 0.0164384C25.4466 0.0438356 26.3726 0.0986301 26.7945 0.186301C27.4301 0.317808 28.0274 0.509589 28.526 0.767123C29.1178 1.06849 29.6438 1.45205 30.0986 1.91233C30.5534 2.36712 30.937 2.89315 31.2384 3.48493C31.4959 3.98356 31.6877 4.5863 31.8192 5.2274C31.9014 5.64384 31.9616 6.56438 31.9836 7.27671C31.9945 7.5726 32 7.95069 32 8.12603V23.8795Z" fill="url(#paint0_linear_2031_7540)"/>
<path fill-rule="evenodd" clip-rule="evenodd" d="M24.4164 7.66021C22.2629 5.50679 19.3972 4.31775 16.3451 4.31775C10.0547 4.31775 4.94238 9.43556 4.9369 15.7205C4.9369 17.7314 5.46293 19.6931 6.46019 21.4191L4.84375 27.3314L10.8931 25.7479C12.5588 26.6575 14.4328 27.1342 16.3451 27.1342H16.3506C22.6355 27.1342 27.7533 22.0164 27.7588 15.7314C27.7588 12.6794 26.5698 9.81364 24.4164 7.66021ZM16.3506 25.2054C14.6465 25.2054 12.9753 24.7451 11.5232 23.8849L11.178 23.6821L7.58896 24.6246L8.54786 21.1287L8.3232 20.7725C7.37526 19.2657 6.87115 17.5177 6.87115 15.726C6.87115 10.4986 11.1287 6.24652 16.3561 6.24652C18.8876 6.24652 21.2711 7.23282 23.0574 9.0246C24.8492 10.8164 25.8355 13.1999 25.83 15.7314C25.8246 20.9534 21.5725 25.2054 16.3506 25.2054ZM21.5506 18.1095C21.2657 17.9671 19.8629 17.2767 19.6054 17.1835C19.3424 17.0904 19.1561 17.041 18.9643 17.326C18.7725 17.6109 18.2301 18.252 18.0602 18.4438C17.8958 18.6356 17.7259 18.6575 17.441 18.515C17.1561 18.3725 16.2355 18.0712 15.1506 17.1013C14.3013 16.3451 13.7314 15.4136 13.567 15.1287C13.4027 14.8438 13.5506 14.6904 13.6931 14.5479C13.8191 14.4219 13.978 14.2136 14.1205 14.0493C14.2629 13.8849 14.3122 13.7643 14.4054 13.5725C14.4985 13.3808 14.4547 13.2164 14.3835 13.0739C14.3122 12.9314 13.7424 11.5287 13.5068 10.9588C13.2766 10.4054 13.041 10.4767 12.8657 10.4712C12.7013 10.4602 12.5095 10.4602 12.3177 10.4602C12.1259 10.4602 11.8191 10.5314 11.5561 10.8164C11.2931 11.1013 10.5588 11.7917 10.5588 13.1945C10.5588 14.5972 11.578 15.9506 11.7205 16.1424C11.8629 16.3342 13.7314 19.2109 16.5917 20.4438C17.2711 20.7397 17.8027 20.915 18.2191 21.0465C18.904 21.2657 19.5232 21.2328 20.0164 21.1616C20.5643 21.0794 21.704 20.4712 21.9396 19.8082C22.1753 19.1451 22.1753 18.5698 22.104 18.4547C22.0218 18.3232 21.8355 18.252 21.5506 18.1095Z" fill="white"/>
</g>
<defs>
<linearGradient id="paint0_linear_2031_7540" x1="16.0012" y1="32.0024" x2="16.0012" y2="0" gradientUnits="userSpaceOnUse">
<stop stop-color="#25CF43"/>
<stop offset="1" stop-color="#61FD7D"/>
</linearGradient>
<clipPath id="clip0_2031_7540">
<rect width="32" height="32" fill="white"/>
</clipPath>
</defs>
</svg>
