<?xml version="1.0" encoding="UTF-8"?>
<svg width="256px" height="256px" viewBox="0 0 256 256" version="1.1" xmlns="http://www.w3.org/2000/svg" xmlns:xlink="http://www.w3.org/1999/xlink">
    <!-- Generator: Sketch 42 (36781) - http://www.bohemiancoding.com/sketch -->
    <title>Artboard 2</title>
    <desc>Created with Sketch.</desc>
    <defs>
        <linearGradient x1="50%" y1="100%" x2="50%" y2="0%" id="linearGradient-1">
            <stop stop-color="#F2F4F7" offset="0%"></stop>
            <stop stop-color="#FFFFFF" offset="100%"></stop>
        </linearGradient>
        <rect id="path-2" x="0" y="0" width="256" height="256"></rect>
        <polygon id="path-4" points="0 0 199.222764 0 199.222764 199.22439 0 199.22439"></polygon>
    </defs>
    <g id="Page-1" stroke="none" stroke-width="1" fill="none" fill-rule="evenodd">
        <g id="Artboard-2">
            <g id="Icon">
                <mask id="mask-3" fill="white">
                    <use xlink:href="#path-2"></use>
                </mask>
                <use fill="url(#linearGradient-1)" xlink:href="#path-2"></use>
                <g id="wordpress-blue" mask="url(#mask-3)">
                    <g transform="translate(28.000000, 28.000000)" id="Clipped">
                        <g>
                            <mask id="mask-5" fill="white">
                                <use xlink:href="#path-4"></use>
                            </mask>
                            <g id="a"></g>
                            <g id="Group" mask="url(#mask-5)" fill-rule="nonzero" fill="#00749A">
                                <path d="M509.252033,78.4178862 L474.687805,78.4178862 L474.687805,82.0845528 C485.499187,82.0845528 487.237398,84.401626 487.237398,98.1105691 L487.237398,122.829268 C487.237398,136.538211 485.502439,139.050407 474.687805,139.050407 C466.388618,137.891057 460.785366,133.450407 453.061789,124.952846 L444.180488,115.299187 C456.149593,113.172358 462.521951,105.643902 462.521951,97.1463415 C462.521951,86.5284553 453.44878,78.4178862 436.455285,78.4178862 L402.471545,78.4178862 L402.471545,82.0845528 C413.282927,82.0845528 415.021138,84.401626 415.021138,98.1105691 L415.021138,122.829268 C415.021138,136.538211 413.284553,139.050407 402.471545,139.050407 L402.471545,142.718699 L440.895935,142.718699 L440.895935,139.050407 C430.086179,139.050407 428.346341,136.538211 428.346341,122.829268 L428.346341,115.881301 L431.629268,115.881301 L453.063415,142.718699 L509.253659,142.718699 C536.865041,142.718699 548.839024,128.045528 548.839024,110.471545 C548.835772,92.899187 536.865041,78.4178862 509.252033,78.4178862 L509.252033,78.4178862 Z M428.347967,109.889431 L428.347967,84.2113821 L436.263415,84.2113821 C444.95122,84.2113821 448.814634,90.196748 448.814634,97.1479675 C448.814634,103.907317 444.95122,109.891057 436.263415,109.891057 L428.347967,109.889431 Z M509.83252,136.731707 L508.479675,136.731707 C501.530081,136.731707 500.564228,134.996748 500.564228,126.113821 L500.564228,84.2113821 L509.83252,84.2113821 C529.913821,84.2113821 533.578862,98.8845528 533.578862,110.278049 C533.580488,122.055285 529.912195,136.731707 509.83252,136.731707 L509.83252,136.731707 Z M294.923577,117.037398 L308.245528,77.6422764 C312.108943,66.2504065 310.372358,62.9707317 298.013008,62.9707317 L298.013008,59.1073171 L334.313821,59.1073171 L334.313821,62.9707317 C322.15122,62.9707317 319.253659,65.8650407 314.427642,79.9609756 L292.413008,146 L289.904065,146 L270.206504,85.5609756 L250.126829,146 L247.614634,146 L226.182114,79.9626016 C221.547967,65.8666667 218.458537,62.9723577 207.258537,62.9723577 L207.258537,59.1089431 L250.125203,59.1089431 L250.125203,62.9723577 C238.730081,62.9723577 235.64065,65.6747967 239.697561,77.6439024 L252.634146,117.039024 L272.134959,59.1089431 L275.806504,59.1089431 L294.923577,117.037398 L294.923577,117.037398 Z M360.572358,145.226016 C339.333333,145.226016 321.954472,129.586992 321.954472,110.468293 C321.954472,91.5447154 339.333333,75.904065 360.572358,75.904065 C381.811382,75.904065 399.190244,91.5447154 399.190244,110.468293 C399.190244,129.586992 381.813008,145.226016 360.572358,145.226016 Z M360.572358,81.8943089 C342.809756,81.8943089 336.627642,97.9170732 336.627642,110.469919 C336.627642,123.21626 342.809756,139.04878 360.572358,139.04878 C378.531707,139.04878 384.710569,123.21626 384.710569,110.469919 C384.710569,97.9170732 378.531707,81.8943089 360.572358,81.8943089 Z" id="Shape"></path>
                                <g id="Shape">
                                    <path d="M14.1593496,99.6097561 C14.1593496,133.435772 33.8162602,162.665041 62.3203252,176.518699 L21.5577236,64.8325203 C16.6712102,75.7749549 14.1501039,87.6258167 14.1593496,99.6097561 L14.1593496,99.6097561 Z M157.300813,95.297561 C157.300813,84.7365854 153.507317,77.4227642 150.253659,71.7300813 C145.921951,64.6910569 141.863415,58.7300813 141.863415,51.6910569 C141.863415,43.8357724 147.819512,36.5235772 156.211382,36.5235772 C156.590244,36.5235772 156.949593,36.5707317 157.320325,36.5918699 C142.115447,22.6634146 121.860163,14.1593496 99.6130081,14.1593496 C69.7593496,14.1593496 43.4943089,29.4764228 28.2146341,52.6764228 C30.2195122,52.7365854 32.1105691,52.7772358 33.7138211,52.7772358 C42.6520325,52.7772358 56.4878049,51.6926829 56.4878049,51.6926829 C61.0943089,51.4211382 61.6373984,58.1869919 57.0373984,58.7317073 C57.0373984,58.7317073 52.4065041,59.2764228 47.2552846,59.5463415 L78.3739837,152.107317 L97.0764228,96.0211382 L83.7609756,59.5447154 C79.1593496,59.2747967 74.8,58.7300813 74.8,58.7300813 C70.195122,58.4601626 70.7349593,51.4195122 75.3398374,51.6910569 C75.3398374,51.6910569 89.4520325,52.7756098 97.8487805,52.7756098 C106.785366,52.7756098 120.622764,51.6910569 120.622764,51.6910569 C125.23252,51.4195122 125.773984,58.1853659 121.170732,58.7300813 C121.170732,58.7300813 116.531707,59.2747967 111.390244,59.5447154 L142.271545,151.404878 L150.793496,122.921951 C154.489431,111.102439 157.300813,102.613008 157.300813,95.297561 L157.300813,95.297561 Z"></path>
                                    <path d="M101.112195,107.084553 L75.4731707,181.585366 C83.3116775,183.895426 91.4411929,185.068363 99.6130081,185.068293 C109.564228,185.068293 119.107317,183.346341 127.990244,180.22439 C127.751963,179.851399 127.5484,179.457336 127.382114,179.047154 L101.112195,107.084553 Z M174.595122,58.6113821 C174.962602,61.3333333 175.170732,64.2569106 175.170732,67.398374 C175.170732,76.0699187 173.55122,85.8178862 168.673171,98.0065041 L142.570732,173.474797 C167.97561,158.660163 185.063415,131.136585 185.063415,99.6097561 C185.086204,85.2796374 181.485168,71.1764166 174.595122,58.6113821 L174.595122,58.6113821 Z"></path>
                                    <path d="M99.6130081,0 C44.6878049,0 0,44.6845528 0,99.6097561 C0,154.541463 44.6861789,199.226016 99.6130081,199.226016 C154.536585,199.226016 199.230894,154.543089 199.230894,99.6097561 C199.229268,44.6845528 154.536585,0 99.6130081,0 Z M99.6130081,194.658537 C47.2065041,194.658537 4.56747967,152.019512 4.56747967,99.6097561 C4.56747967,47.204878 47.204878,4.56910569 99.6130081,4.56910569 C152.017886,4.56910569 194.653659,47.204878 194.653659,99.6097561 C194.653659,152.019512 152.01626,194.658537 99.6130081,194.658537 Z"></path>
                                </g>
                            </g>
                        </g>
                    </g>
                </g>
            </g>
        </g>
    </g>
</svg>