<svg width="28" height="24" viewBox="0 0 28 24" fill="none" xmlns="http://www.w3.org/2000/svg">
<path d="M17.9459 0H9.10341C4.08313 0 0 3.9988 0 8.91541C0 13.832 4.07577 17.8236 9.09239 17.8308L13.1718 21.3546L16.2406 24V17.9532H17.9385C22.9588 17.9532 27.0419 13.9544 27.0419 9.03779V8.91541C27.0419 3.9988 22.9588 0 17.9385 0H17.9459ZM22.4075 9.03779C22.4075 11.4457 20.4046 13.4073 17.9459 13.4073H16.2442V17.9424L13.8701 15.8908L10.8491 13.2813H9.10708C6.64839 13.2813 4.64542 11.3198 4.64542 8.91182C4.64542 6.5039 6.64839 4.54229 9.10708 4.54229H17.9495C20.4083 4.54229 22.4112 6.5039 22.4112 8.91182V9.03419L22.4075 9.03779Z" fill="#007AFF" style="fill:#007AFF;fill:color(display-p3 0.0000 0.4784 1.0000);fill-opacity:1;"/>
</svg>
