<svg width="66" height="24" viewBox="0 0 66 24" fill="none" xmlns="http://www.w3.org/2000/svg">
<path d="M27.6786 1.69565V17.351H24.5029V1.69565H27.6786Z" fill="#007AFF" style="fill:#007AFF;fill:color(display-p3 0.0000 0.4784 1.0000);fill-opacity:1;"/>
<path d="M65.9998 4.71797H62.8242V17.3517H65.9998V4.71797Z" fill="#007AFF" style="fill:#007AFF;fill:color(display-p3 0.0000 0.4784 1.0000);fill-opacity:1;"/>
<path d="M5.26108 11.5826V7.92373H9.36576V4.6516L5.26108 4.64998V1.69565H2.06282V4.64998H0V7.92373H2.06282V13.5308C2.06282 15.8641 3.12972 17.1556 5.26108 17.4069H9.36576V14.4842H5.26108V11.5826Z" fill="#007AFF" style="fill:#007AFF;fill:color(display-p3 0.0000 0.4784 1.0000);fill-opacity:1;"/>
<path d="M41.6035 4.51236H35.2407C31.6287 4.51236 28.6909 7.4667 28.6909 11.0972C28.6909 14.7277 31.6255 17.6779 35.2334 17.682L38.1695 20.2845L38.1711 20.2828L40.3798 22.2391V17.772H41.6025C45.2137 17.772 48.1524 14.8176 48.1524 11.1872V11.0963C48.1524 7.46508 45.2137 4.51155 41.6025 4.51155L41.6035 4.51236ZM44.8138 11.188C44.8138 12.9676 43.3733 14.4155 41.6035 14.4155H40.3785V17.7663L38.6694 16.2519L36.4964 14.3255H35.2414C33.4715 14.3255 32.0311 12.8776 32.0311 11.098C32.0311 9.31842 33.4715 7.87043 35.2414 7.87043H41.6041C43.3743 7.87043 44.8144 9.31842 44.8144 11.098V11.1888L44.8138 11.188Z" fill="#007AFF" style="fill:#007AFF;fill:color(display-p3 0.0000 0.4784 1.0000);fill-opacity:1;"/>
<path d="M55.2154 17.7319C51.8098 17.7319 49.0391 14.9463 49.0391 11.5225V4.71797H52.1421V11.5225C52.1421 13.2259 53.5202 14.6122 55.2154 14.6122C56.9103 14.6122 58.2877 13.2267 58.2877 11.5225V4.73824H61.3908V11.5225C61.3908 14.9463 58.62 17.7319 55.2144 17.7319H55.2154Z" fill="#007AFF" style="fill:#007AFF;fill:color(display-p3 0.0000 0.4784 1.0000);fill-opacity:1;"/>
<path d="M19.7644 4.71795V6.51941C19.3411 5.94216 18.7774 5.46301 18.0742 5.08278C17.371 4.70336 16.5508 4.51283 15.613 4.51283C14.5388 4.51283 13.5679 4.77876 12.6986 5.31059C11.8285 5.84325 11.1406 6.60291 10.6341 7.59122C10.1269 8.57949 9.87451 9.7121 9.87451 10.989C9.87451 12.2659 10.1277 13.4253 10.6341 14.4209C11.1406 15.4165 11.8285 16.1883 12.6986 16.7355C13.5679 17.2828 14.5324 17.556 15.5904 17.556C16.5275 17.556 17.3557 17.3622 18.0742 16.9747C18.7927 16.5871 19.3556 16.0967 19.7644 15.504V17.3509H22.9627V4.71795H19.7644ZM16.4186 14.3544C14.5727 14.3544 13.076 12.8926 13.076 11.0887C13.076 9.28485 14.5727 7.82307 16.4186 7.82307C18.2645 7.82307 19.7612 9.28485 19.7612 11.0887C19.7612 12.8926 18.2645 14.3544 16.4186 14.3544Z" fill="#007AFF" style="fill:#007AFF;fill:color(display-p3 0.0000 0.4784 1.0000);fill-opacity:1;"/>
</svg>
